  0
SECTION
  2
HEADER
  9
$ACADVER
  1
AC1009
  9
$INSBASE
 10
0.0
 20
0.0
 30
0.0
  9
$EXTMIN
 10
81.9563898009573535
 20
-243.1660167041409011
 30
-0.0015258207003583
  9
$EXTMAX
 10
1014.3021310103119959
 20
230.9337918284120121
 30
0.0000000349246037
  9
$LIMMIN
 10
0.0
 20
0.0
  9
$LIMMAX
 10
12.0
 20
9.0
  9
$ORTHOMODE
 70
     0
  9
$REGENMODE
 70
     1
  9
$FILLMODE
 70
     1
  9
$QTEXTMODE
 70
     0
  9
$MIRRTEXT
 70
     0
  9
$DRAGMODE
 70
     2
  9
$LTSCALE
 40
1.0
  9
$OSMODE
 70
   175
  9
$ATTMODE
 70
     1
  9
$TEXTSIZE
 40
0.2
  9
$TRACEWID
 40
0.05
  9
$TEXTSTYLE
  7
STANDARD
  9
$CLAYER
  8
0
  9
$CELTYPE
  6
BYLAYER
  9
$CECOLOR
 62
   256
  9
$DIMSCALE
 40
1.0
  9
$DIMASZ
 40
0.18
  9
$DIMEXO
 40
0.0625
  9
$DIMDLI
 40
0.38
  9
$DIMRND
 40
0.0
  9
$DIMDLE
 40
0.0
  9
$DIMEXE
 40
0.18
  9
$DIMTP
 40
0.0
  9
$DIMTM
 40
0.0
  9
$DIMTXT
 40
0.18
  9
$DIMCEN
 40
0.09
  9
$DIMTSZ
 40
0.0
  9
$DIMTOL
 70
     0
  9
$DIMLIM
 70
     0
  9
$DIMTIH
 70
     1
  9
$DIMTOH
 70
     1
  9
$DIMSE1
 70
     0
  9
$DIMSE2
 70
     0
  9
$DIMTAD
 70
     0
  9
$DIMZIN
 70
     0
  9
$DIMBLK
  1

  9
$DIMASO
 70
     1
  9
$DIMSHO
 70
     1
  9
$DIMPOST
  1

  9
$DIMAPOST
  1

  9
$DIMALT
 70
     0
  9
$DIMALTD
 70
     2
  9
$DIMALTF
 40
25.3999999999999986
  9
$DIMLFAC
 40
1.0
  9
$DIMTOFL
 70
     0
  9
$DIMTVP
 40
0.0
  9
$DIMTIX
 70
     0
  9
$DIMSOXD
 70
     0
  9
$DIMSAH
 70
     0
  9
$DIMBLK1
  1

  9
$DIMBLK2
  1

  9
$DIMSTYLE
  2
STANDARD
  9
$DIMCLRD
 70
     0
  9
$DIMCLRE
 70
     0
  9
$DIMCLRT
 70
     0
  9
$DIMTFAC
 40
1.0
  9
$DIMGAP
 40
0.09
  9
$LUNITS
 70
     2
  9
$LUPREC
 70
     4
  9
$SKETCHINC
 40
0.1
  9
$FILLETRAD
 40
0.0
  9
$AUNITS
 70
     0
  9
$AUPREC
 70
     0
  9
$MENU
  1
.
  9
$ELEVATION
 40
0.0
  9
$PELEVATION
 40
0.0
  9
$THICKNESS
 40
0.0
  9
$LIMCHECK
 70
     0
  9
$BLIPMODE
 70
     0
  9
$CHAMFERA
 40
0.0
  9
$CHAMFERB
 40
0.0
  9
$SKPOLY
 70
     0
  9
$TDCREATE
 40
2459096.6516087958589196
  9
$TDUPDATE
 40
2460619.5643634260632098
  9
$TDINDWG
 40
0.0177662037
  9
$TDUSRTIMER
 40
0.0177662037
  9
$USRTIMER
 70
     1
  9
$ANGBASE
 50
0.0
  9
$ANGDIR
 70
     0
  9
$PDMODE
 70
     0
  9
$PDSIZE
 40
0.0
  9
$PLINEWID
 40
0.0
  9
$COORDS
 70
     1
  9
$SPLFRAME
 70
     0
  9
$SPLINETYPE
 70
     6
  9
$SPLINESEGS
 70
     8
  9
$ATTDIA
 70
     1
  9
$ATTREQ
 70
     1
  9
$HANDLING
 70
     1
  9
$HANDSEED
  5
CC39
  9
$SURFTAB1
 70
     6
  9
$SURFTAB2
 70
     6
  9
$SURFTYPE
 70
     6
  9
$SURFU
 70
     6
  9
$SURFV
 70
     6
  9
$UCSNAME
  2

  9
$UCSORG
 10
0.0
 20
0.0
 30
0.0
  9
$UCSXDIR
 10
1.0
 20
0.0
 30
0.0
  9
$UCSYDIR
 10
0.0
 20
1.0
 30
0.0
  9
$PUCSNAME
  2

  9
$PUCSORG
 10
0.0
 20
0.0
 30
0.0
  9
$PUCSXDIR
 10
1.0
 20
0.0
 30
0.0
  9
$PUCSYDIR
 10
0.0
 20
1.0
 30
0.0
  9
$USERI1
 70
     0
  9
$USERI2
 70
     0
  9
$USERI3
 70
     0
  9
$USERI4
 70
     0
  9
$USERI5
 70
     0
  9
$USERR1
 40
0.0
  9
$USERR2
 40
0.0
  9
$USERR3
 40
0.0
  9
$USERR4
 40
0.0
  9
$USERR5
 40
0.0
  9
$WORLDVIEW
 70
     1
  9
$SHADEDGE
 70
     3
  9
$SHADEDIF
 70
    70
  9
$TILEMODE
 70
     1
  9
$MAXACTVP
 70
    64
  9
$PLIMCHECK
 70
     0
  9
$PEXTMIN
 10
0.0
 20
0.0
 30
0.0
  9
$PEXTMAX
 10
0.0
 20
0.0
 30
0.0
  9
$PLIMMIN
 10
0.0
 20
0.0
  9
$PLIMMAX
 10
12.0
 20
9.0
  9
$UNITMODE
 70
     0
  9
$VISRETAIN
 70
     1
  9
$PLINEGEN
 70
     0
  9
$PSLTSCALE
 70
     1
  0
ENDSEC
  0
SECTION
  2
TABLES
  0
TABLE
  2
VPORT
 70
     1
  0
VPORT
  2
*ACTIVE
 70
     0
 10
0.0
 20
0.0
 11
1.0
 21
1.0
 12
610.0943662269062315
 22
38.3788025405578992
 13
0.0
 23
0.0
 14
0.5
 24
0.5
 15
0.5
 25
0.5
 16
0.0
 26
0.0
 36
1.0
 17
0.0
 27
0.0
 37
0.0
 40
1221.5320868701339805
 41
2.1760204081632648
 42
50.0
 43
0.0
 44
0.0
 50
0.0
 51
0.0
 71
     0
 72
  1000
 73
     1
 74
     3
 75
     0
 76
     0
 77
     0
 78
     0
  0
ENDTAB
  0
TABLE
  2
LTYPE
 70
     1
  0
LTYPE
  2
CONTINUOUS
 70
     0
  3
Solid line
 72
    65
 73
     0
 40
0.0
  0
ENDTAB
  0
TABLE
  2
LAYER
 70
     7
  0
LAYER
  2
0
 70
     0
 62
     7
  6
CONTINUOUS
  0
LAYER
  2
BLUE
 70
     0
 62
     5
  6
CONTINUOUS
  0
LAYER
  2
CNC_TEXT0
 70
     0
 62
     9
  6
CONTINUOUS
  0
LAYER
  2
CNC_TEXT
 70
     0
 62
     9
  6
CONTINUOUS
  0
LAYER
  2
DEFPOINTS
 70
     0
 62
     2
  6
CONTINUOUS
  0
LAYER
  2
HOLES
 70
     0
 62
     7
  6
CONTINUOUS
  0
ENDTAB
  0
TABLE
  2
STYLE
 70
     5
  0
STYLE
  2
STANDARD
 70
     0
 40
0.0
 41
1.0
 50
0.0
 71
     0
 42
0.2
  3
txt
  4

  0
STYLE
  2
TYP_
 70
     0
 40
0.0
 41
1.0
 50
0.0
 71
     0
 42
1.0
  3
txt
  4

  0
ENDTAB
  0
TABLE
  2
VIEW
 70
     0
  0
ENDTAB
  0
TABLE
  2
UCS
 70
     0
  0
ENDTAB
  0
TABLE
  2
APPID
 70
    26
  0
APPID
  2
ACAD
 70
     0
  0
APPID
  2
ACADANNOTATIVE
 70
     0
  0
APPID
  2
ACADANNOPO
 70
     0
  0
APPID
  2
ACAD_DSTYLE_DIMJAG
 70
     0
  0
APPID
  2
ACAD_DSTYLE_DIMTALN
 70
     0
  0
APPID
  2
ACAD_MLEADERVER
 70
     0
  0
APPID
  2
ACAD_NAV_VCDISPLAY
 70
     0
  0
APPID
  2
ACAECLAYERSTANDARD
 70
     0
  0
APPID
  2
ACAD_PSEXT
 70
     0
  0
APPID
  2
ACAD_DSTYLE_DIMJOGGED_JOGA
 70
     0
  0
APPID
  2
ACCMTRANSPARENCY
 70
     0
  0
APPID
  2
ACAD_EXEMPT_FROM_CAD_STANDARDS
 70
     0
  0
APPID
  2
ACAD_DSTYLE_DIMJOGGED_JOG0
 70
     0
  0
APPID
  2
ACAD_DSTYLE_DIMJOGGED_JOG1
 70
     0
  0
APPID
  2
ACAD_DSTYLE_DIMJOGGED_JOG2
 70
     0
  0
APPID
  2
ACAD_DSTYLE_DIMJOGGED_JOG3
 70
     0
  0
APPID
  2
ACAD_DSTYLE_DIMJOGGED_JOG4
 70
     0
  0
APPID
  2
ACAD_DSTYLE_DIMJOGGED_JOG5
 70
     0
  0
APPID
  2
ACAD_DSTYLE_DIMJOGGED_JOG6
 70
     0
  0
APPID
  2
REVIT
 70
     0
  0
APPID
  2
ACAD_DSTYLE_DIMJOGGED_JOG7
 70
     0
  0
APPID
  2
ACAD_DSTYLE_DIMJOGGED_JOG8
 70
     0
  0
APPID
  2
ACAD_DSTYLE_DIMJOGGED_JOG9
 70
     0
  0
APPID
  2
ACAD_DSTYLE_DIMJOGGED_JOGB
 70
     0
  0
APPID
  2
ACAD_DSTYLE_DIMJOGGED_JOGC
 70
     0
  0
APPID
  2
ACAD_DSTYLE_DIMJOGGED_JOGD
 70
     0
  0
ENDTAB
  0
TABLE
  2
DIMSTYLE
 70
     8
  0
DIMSTYLE
  2
STANDARD
 70
     0
  3

  4

  5

  6

  7

 40
1.0
 41
0.18
 42
0.0625
 43
0.38
 44
0.18
 45
0.0
 46
0.0
 47
0.0
 48
0.0
140
0.18
141
0.09
142
0.0
143
25.3999999999999986
144
1.0
145
0.0
146
1.0
147
0.09
 71
     0
 72
     0
 73
     1
 74
     1
 75
     0
 76
     0
 77
     0
 78
     0
170
     0
171
     2
172
     0
173
     0
174
     0
175
     0
176
     0
177
     0
178
     0
  0
ENDTAB
  0
ENDSEC
  0
SECTION
  2
BLOCKS
  0
BLOCK
  8
0
  2
$MODEL_SPACE
 70
     0
 10
0.0
 20
0.0
 30
0.0
  3
$MODEL_SPACE
  1

  0
ENDBLK
  5
C79B
  8
0
  0
BLOCK
 67
     1
  8
0
  2
$PAPER_SPACE
 70
     0
 10
0.0
 20
0.0
 30
0.0
  3
$PAPER_SPACE
  1

  0
ENDBLK
  5
C797
 67
     1
  8
0
  0
ENDSEC
  0
SECTION
  2
ENTITIES
  0
TEXT
  5
63E
  8
CNC_TEXT0
 10
82.790013928074714
 20
207.8383661948988106
 30
0.0
 40
23.0814917277011808
  1
FLAT ACM FOR JBL
  7
TYP_
  0
TEXT
  5
C812
  8
CNC_TEXT0
 10
81.9894519524841598
 20
-105.8625461536517065
 30
0.0
 40
23.0814917277011808
  1
S01A
  7
TYP_
  0
POLYLINE
  5
C813
  8
HOLES
 66
     1
 10
0.0
 20
0.0
 30
0.0
 70
     1
  0
VERTEX
  5
CB65
  8
HOLES
 10
95.5270796369487556
 20
-218.5599546461673128
 30
0.0
  0
VERTEX
  5
CB66
  8
HOLES
 10
92.6030406355191644
 20
-225.016623356445109
 30
0.0
 42
0.3363642666148045
  0
VERTEX
  5
CB67
  8
HOLES
 10
92.6449394710908649
 20
-225.2007769442913911
 30
0.0
  0
VERTEX
  5
CB68
  8
HOLES
 10
102.6749226091328069
 20
-233.6169320960810012
 30
0.0
 42
0.3639702342655807
  0
VERTEX
  5
CB69
  8
HOLES
 10
102.8757937371590003
 20
-233.6169320960812001
 30
0.0
  0
VERTEX
  5
CB6A
  8
HOLES
 10
112.9057768752010986
 20
-225.2007769442915048
 30
0.0
 42
0.3363642666144995
  0
VERTEX
  5
CB6B
  8
HOLES
 10
112.9476757107727991
 20
-225.0166233564451943
 30
0.0
  0
VERTEX
  5
CB6C
  8
HOLES
 10
110.0236367093434069
 20
-218.559954646167597
 30
0.0
 42
0.2187983390851307
  0
VERTEX
  5
CB6D
  8
HOLES
 10
109.9250744916209044
 20
-218.4744202612660899
 30
0.0
  0
VERTEX
  5
CB6E
  8
HOLES
 10
102.8191303550078999
 20
-216.4007129344412022
 30
0.0
 42
0.1429325937991494
  0
VERTEX
  5
CB6F
  8
HOLES
 10
102.7315859912853
 20
-216.4007129344408895
 30
0.0
  0
VERTEX
  5
CB70
  8
HOLES
 10
95.625641854671585
 20
-218.4744202612660047
 30
0.0
 42
0.2187983390839033
  0
SEQEND
  5
CB71
  8
HOLES
  0
POLYLINE
  5
C814
  8
HOLES
 66
     1
 10
0.0
 20
0.0
 30
0.0
 70
     1
  0
VERTEX
  5
CB72
  8
HOLES
 10
90.1418932616792148
 20
-217.4891172905111887
 30
0.0
 42
1.0
  0
VERTEX
  5
CB73
  8
HOLES
 10
90.188495363392235
 20
-217.5446555126426915
 30
0.0
  0
VERTEX
  5
CB74
  8
HOLES
 10
93.4441842466385566
 20
-214.8128081715325095
 30
0.0
 42
0.4142135623730832
  0
VERTEX
  5
CB75
  8
HOLES
 10
93.4486523068347879
 20
-214.7617380096110082
 30
0.0
 42
0.4142135623730832
  0
VERTEX
  5
CB76
  8
HOLES
 10
93.3975821449045043
 20
-214.7572699494045025
 30
0.0
  0
SEQEND
  5
CB77
  8
HOLES
  0
POLYLINE
  5
C815
  8
HOLES
 66
     1
 10
0.0
 20
0.0
 30
0.0
 70
     1
  0
VERTEX
  5
CB78
  8
HOLES
 10
91.6230217624774923
 20
-219.1084083937257105
 30
0.0
  0
VERTEX
  5
CB79
  8
HOLES
 10
94.7350773125980368
 20
-216.497083729340801
 30
0.0
  0
VERTEX
  5
CB7A
  8
HOLES
 10
93.8914185749098351
 20
-215.4916503977275113
 30
0.0
  0
VERTEX
  5
CB7B
  8
HOLES
 10
90.7793630246984549
 20
-218.1029750621084133
 30
0.0
  0
SEQEND
  5
CB7C
  8
HOLES
  0
POLYLINE
  5
C816
  8
HOLES
 66
     1
 10
0.0
 20
0.0
 30
0.0
 70
     1
  0
VERTEX
  5
CB7D
  8
HOLES
 10
112.1531342013970942
 20
-214.7572699494126027
 30
0.0
 42
0.4142135623723576
  0
VERTEX
  5
CB7E
  8
HOLES
 10
112.1020640394828973
 20
-214.7617380096245085
 30
0.0
 42
0.4142135623736823
  0
VERTEX
  5
CB7F
  8
HOLES
 10
112.1065320996822976
 20
-214.8128081715424003
 30
0.0
  0
VERTEX
  5
CB80
  8
HOLES
 10
115.362220982973696
 20
-217.5446555126854093
 30
0.0
 42
1.0
  0
VERTEX
  5
CB81
  8
HOLES
 10
115.4088230846772944
 20
-217.4891172905234953
 30
0.0
  0
SEQEND
  5
CB82
  8
HOLES
  0
POLYLINE
  5
C817
  8
HOLES
 66
     1
 10
0.0
 20
0.0
 30
0.0
 70
     1
  0
VERTEX
  5
CB83
  8
HOLES
 10
114.771353321597303
 20
-218.1029750621115113
 30
0.0
  0
VERTEX
  5
CB84
  8
HOLES
 10
113.9276945839098971
 20
-219.1084083937236073
 30
0.0
  0
VERTEX
  5
CB85
  8
HOLES
 10
110.8156390336945947
 20
-216.4970837293396073
 30
0.0
  0
VERTEX
  5
CB86
  8
HOLES
 10
111.6592977713821
 20
-215.4916503977275113
 30
0.0
  0
SEQEND
  5
CB87
  8
HOLES
  0
POLYLINE
  5
C818
  8
HOLES
 66
     1
 10
0.0
 20
0.0
 30
0.0
 70
     1
  0
VERTEX
  5
CB88
  8
HOLES
 10
573.5018825337929229
 20
-226.5997719129194081
 30
0.0
  0
VERTEX
  5
CB89
  8
HOLES
 10
579.4563923225473445
 20
-220.7821593680874059
 30
0.0
 42
-0.1958919799421903
  0
VERTEX
  5
CB8A
  8
HOLES
 10
579.5655855462207455
 20
-220.7376720738720906
 30
0.0
  0
VERTEX
  5
CB8B
  8
HOLES
 10
590.5212204872232178
 20
-220.7376720738720053
 30
0.0
 42
-0.0204652981482272
  0
VERTEX
  5
CB8C
  8
HOLES
 10
590.5339952383892523
 20
-220.7381951711460033
 30
0.0
  0
VERTEX
  5
CB8D
  8
HOLES
 10
591.3607903139654809
 20
-220.8060196841626919
 30
0.0
  0
VERTEX
  5
CB8E
  8
HOLES
 10
591.3607903139654809
 20
-231.5566507710719861
 30
0.0
  0
VERTEX
  5
CB8F
  8
HOLES
 10
583.0039416938752765
 20
-231.5566507710719861
 30
0.0
 42
-0.0965474659652968
  0
VERTEX
  5
CB90
  8
HOLES
 10
582.9452610732098492
 20
-231.5452132265388059
 30
0.0
  0
VERTEX
  5
CB91
  8
HOLES
 10
573.5523951368016924
 20
-227.7390544180377105
 30
0.0
 42
-0.305450733689451
  0
VERTEX
  5
CB92
  8
HOLES
 10
573.4548257574656418
 20
-227.5942419625702939
 30
0.0
  0
VERTEX
  5
CB93
  8
HOLES
 10
573.4548257574656418
 20
-226.7115346187023874
 30
0.0
 42
-0.2019362499761473
  0
SEQEND
  5
CB94
  8
HOLES
  0
POLYLINE
  5
C819
  8
BLUE
 66
     1
 10
0.0
 20
0.0
 30
0.0
 70
     1
  0
VERTEX
  5
CB95
  8
BLUE
 10
593.2045403139653672
 20
-218.1015541078720901
 30
0.0
  0
VERTEX
  5
CB96
  8
BLUE
 10
593.2045403139653672
 20
-234.5015541078720958
 30
0.0
  0
VERTEX
  5
CB97
  8
BLUE
 10
573.2045403139654809
 20
-234.5015541078720958
 30
0.0
  0
VERTEX
  5
CB98
  8
BLUE
 10
573.2045403139654809
 20
-233.8015541078719934
 30
0.0
  0
VERTEX
  5
CB99
  8
BLUE
 10
569.2045403139654809
 20
-233.8015541078719934
 30
0.0
  0
VERTEX
  5
CB9A
  8
BLUE
 10
569.2045403139654809
 20
-218.8015541078719934
 30
0.0
  0
VERTEX
  5
CB9B
  8
BLUE
 10
573.2045403139657083
 20
-218.8015541078719934
 30
0.0
  0
VERTEX
  5
CB9C
  8
BLUE
 10
573.2045403139654809
 20
-218.1015541078720901
 30
0.0
  0
SEQEND
  5
CB9D
  8
BLUE
  0
POLYLINE
  5
C81A
  8
BLUE
 66
     1
 10
0.0
 20
0.0
 30
0.0
 70
     1
  0
VERTEX
  5
CB9E
  8
BLUE
 10
88.0753581731460145
 20
-228.0868740752754888
 30
0.0
  0
VERTEX
  5
CB9F
  8
BLUE
 10
88.7753581731460741
 20
-228.0868740752754888
 30
0.0
  0
VERTEX
  5
CBA0
  8
BLUE
 10
88.7753581731460741
 20
-230.2084939582786944
 30
0.0
 42
0.5800403653362781
  0
VERTEX
  5
CBA1
  8
BLUE
 10
89.1520993265566943
 20
-230.4239856751314903
 30
0.0
  0
VERTEX
  5
CBA2
  8
BLUE
 10
91.8351745602569736
 20
-228.8459387099229048
 30
0.0
 42
-0.1337031949888299
  0
VERTEX
  5
CBA3
  8
BLUE
 10
91.9619157136677359
 20
-228.811430426775587
 30
0.0
  0
VERTEX
  5
CBA4
  8
BLUE
 10
93.3903281448141342
 20
-228.811430426775587
 30
0.0
 42
0.2216946625882135
  0
VERTEX
  5
CBA5
  8
BLUE
 10
93.5818392555604532
 20
-228.7221273292371109
 30
0.0
  0
VERTEX
  5
CBA6
  8
BLUE
 10
93.5828248557481857
 20
-228.7209527366773898
 30
0.0
  0
VERTEX
  5
CBA7
  8
BLUE
 10
102.7753581731460031
 20
-236.4344040528756068
 30
0.0
  0
VERTEX
  5
CBA8
  8
BLUE
 10
111.9678914905796034
 20
-228.7209527366472912
 30
0.0
  0
VERTEX
  5
CBA9
  8
BLUE
 10
111.9688770908099968
 20
-228.7221273293293962
 30
0.0
 42
0.2216946624577938
  0
VERTEX
  5
CBAA
  8
BLUE
 10
112.1603882014787956
 20
-228.811430426775587
 30
0.0
  0
VERTEX
  5
CBAB
  8
BLUE
 10
113.5888006327223962
 20
-228.811430426775587
 30
0.0
 42
-0.1337031949787461
  0
VERTEX
  5
CBAC
  8
BLUE
 10
113.7155417861361002
 20
-228.8459387099246953
 30
0.0
  0
VERTEX
  5
CBAD
  8
BLUE
 10
116.3986170197321997
 20
-230.4239856751225943
 30
0.0
 42
0.5800403653420391
  0
VERTEX
  5
CBAE
  8
BLUE
 10
116.7753581731460031
 20
-230.2084939582717027
 30
0.0
  0
VERTEX
  5
CBAF
  8
BLUE
 10
116.7753581731460031
 20
-228.0868740752758015
 30
0.0
  0
VERTEX
  5
CBB0
  8
BLUE
 10
117.4753581731460059
 20
-228.0868740752754888
 30
0.0
  0
VERTEX
  5
CBB1
  8
BLUE
 10
117.4753581731460059
 20
-224.0868740752754888
 30
0.0
  0
VERTEX
  5
CBB2
  8
BLUE
 10
116.9127534426717006
 20
-224.0868740752754888
 30
0.0
 42
-0.2566853179576632
  0
VERTEX
  5
CBB3
  8
BLUE
 10
116.7017071815555056
 20
-223.9708870435617882
 30
0.0
  0
VERTEX
  5
CBB4
  8
BLUE
 10
114.6304292396991968
 20
-220.7089977581333073
 30
0.0
 42
-0.3269241533368386
  0
VERTEX
  5
CBB5
  8
BLUE
 10
114.6499643900371979
 20
-220.4142878874237113
 30
0.0
  0
VERTEX
  5
CBB6
  8
BLUE
 10
116.6458921771623949
 20
-218.0356337766048966
 30
0.0
 42
0.3527125556234501
  0
VERTEX
  5
CBB7
  8
BLUE
 10
116.6521508053128997
 20
-217.7220083602801139
 30
0.0
  0
VERTEX
  5
CBB8
  8
BLUE
 10
114.1296060726214989
 20
-214.459810876674311
 30
0.0
 42
0.2321850926509752
  0
VERTEX
  5
CBB9
  8
BLUE
 10
113.9318363336927007
 20
-214.362739390575598
 30
0.0
  0
VERTEX
  5
CBBA
  8
BLUE
 10
91.6188800125992344
 20
-214.362739390575598
 30
0.0
 42
0.2321850926501514
  0
VERTEX
  5
CBBB
  8
BLUE
 10
91.4211102736705925
 20
-214.459810876674311
 30
0.0
  0
VERTEX
  5
CBBC
  8
BLUE
 10
88.8985655409791207
 20
-217.7220083602801139
 30
0.0
 42
0.3527125556232695
  0
VERTEX
  5
CBBD
  8
BLUE
 10
88.9048241691295971
 20
-218.0356337766048966
 30
0.0
  0
VERTEX
  5
CBBE
  8
BLUE
 10
90.9007519562547941
 20
-220.4142878874237113
 30
0.0
 42
-0.3269241533389449
  0
VERTEX
  5
CBBF
  8
BLUE
 10
90.9202871065928093
 20
-220.7089977581333073
 30
0.0
  0
VERTEX
  5
CBC0
  8
BLUE
 10
88.8490091647364437
 20
-223.9708870435617882
 30
0.0
 42
-0.2566853179531677
  0
VERTEX
  5
CBC1
  8
BLUE
 10
88.6379629036203056
 20
-224.0868740752754888
 30
0.0
  0
VERTEX
  5
CBC2
  8
BLUE
 10
88.0753581731460145
 20
-224.0868740752754888
 30
0.0
  0
SEQEND
  5
CBC3
  8
BLUE
  0
TEXT
  5
C81B
  8
CNC_TEXT0
 10
293.7165118209231878
 20
-105.8625461536517065
 30
0.0
 40
23.0814917277011808
  1
S01B
  7
TYP_
  0
TEXT
  5
C81C
  8
CNC_TEXT0
 10
559.6879979393869462
 20
-105.8625461536517065
 30
0.0
 40
23.0814917277011808
  1
T01A
  7
TYP_
  0
TEXT
  5
C81D
  8
CNC_TEXT0
 10
755.1283608948706387
 20
-105.8625461536517065
 30
0.0
 40
23.0814917277011808
  1
T01B
  7
TYP_
  0
TEXT
  5
C81E
  8
CNC_TEXT
 10
100.4331087757218057
 20
-215.950537319567502
 30
0.0
 40
1.2408609952812151
  1
S01A
  0
POLYLINE
  5
C81F
  8
HOLES
 66
     1
 10
0.0
 20
0.0
 30
0.0
 70
     1
  0
VERTEX
  5
CBC4
  8
HOLES
 10
307.1786613401283148
 20
-218.5599546461673128
 30
0.0
  0
VERTEX
  5
CBC5
  8
HOLES
 10
304.2546223386987094
 20
-225.016623356445109
 30
0.0
 42
0.3363642666148045
  0
VERTEX
  5
CBC6
  8
HOLES
 10
304.2965211742704241
 20
-225.2007769442913911
 30
0.0
  0
VERTEX
  5
CBC7
  8
HOLES
 10
314.3265043123124087
 20
-233.6169320960810012
 30
0.0
 42
0.3639702342655807
  0
VERTEX
  5
CBC8
  8
HOLES
 10
314.5273754403385738
 20
-233.6169320960812001
 30
0.0
  0
VERTEX
  5
CBC9
  8
HOLES
 10
324.557358578380672
 20
-225.2007769442915048
 30
0.0
 42
0.3363642666144995
  0
VERTEX
  5
CBCA
  8
HOLES
 10
324.5992574139523867
 20
-225.0166233564451943
 30
0.0
  0
VERTEX
  5
CBCB
  8
HOLES
 10
321.6752184125230087
 20
-218.559954646167597
 30
0.0
 42
0.2187983390851307
  0
VERTEX
  5
CBCC
  8
HOLES
 10
321.576656194800421
 20
-218.4744202612660899
 30
0.0
  0
VERTEX
  5
CBCD
  8
HOLES
 10
314.4707120581874733
 20
-216.4007129344412022
 30
0.0
 42
0.1429325937991494
  0
VERTEX
  5
CBCE
  8
HOLES
 10
314.3831676944648734
 20
-216.4007129344408895
 30
0.0
  0
VERTEX
  5
CBCF
  8
HOLES
 10
307.2772235578510731
 20
-218.4744202612660047
 30
0.0
 42
0.2187983390839033
  0
SEQEND
  5
CBD0
  8
HOLES
  0
POLYLINE
  5
C820
  8
HOLES
 66
     1
 10
0.0
 20
0.0
 30
0.0
 70
     1
  0
VERTEX
  5
CBD1
  8
HOLES
 10
301.793474964858774
 20
-217.4891172905111887
 30
0.0
 42
1.0
  0
VERTEX
  5
CBD2
  8
HOLES
 10
301.8400770665717801
 20
-217.5446555126426915
 30
0.0
  0
VERTEX
  5
CBD3
  8
HOLES
 10
305.0957659498180874
 20
-214.8128081715325095
 30
0.0
 42
0.4142135623730832
  0
VERTEX
  5
CBD4
  8
HOLES
 10
305.1002340100143897
 20
-214.7617380096110082
 30
0.0
 42
0.4142135623730832
  0
VERTEX
  5
CBD5
  8
HOLES
 10
305.0491638480841061
 20
-214.7572699494045025
 30
0.0
  0
SEQEND
  5
CBD6
  8
HOLES
  0
POLYLINE
  5
C821
  8
HOLES
 66
     1
 10
0.0
 20
0.0
 30
0.0
 70
     1
  0
VERTEX
  5
CBD7
  8
HOLES
 10
303.2746034656569805
 20
-219.1084083937257105
 30
0.0
  0
VERTEX
  5
CBD8
  8
HOLES
 10
306.3866590157775818
 20
-216.497083729340801
 30
0.0
  0
VERTEX
  5
CBD9
  8
HOLES
 10
305.5430002780893801
 20
-215.4916503977275113
 30
0.0
  0
VERTEX
  5
CBDA
  8
HOLES
 10
302.4309447278779999
 20
-218.1029750621084133
 30
0.0
  0
SEQEND
  5
CBDB
  8
HOLES
  0
POLYLINE
  5
C822
  8
HOLES
 66
     1
 10
0.0
 20
0.0
 30
0.0
 70
     1
  0
VERTEX
  5
CBDC
  8
HOLES
 10
323.8047159045767103
 20
-214.7572699494126027
 30
0.0
 42
0.4142135623723576
  0
VERTEX
  5
CBDD
  8
HOLES
 10
323.7536457426623997
 20
-214.7617380096245085
 30
0.0
 42
0.4142135623736823
  0
VERTEX
  5
CBDE
  8
HOLES
 10
323.7581138028618852
 20
-214.8128081715424003
 30
0.0
  0
VERTEX
  5
CBDF
  8
HOLES
 10
327.0138026861533262
 20
-217.5446555126854093
 30
0.0
 42
1.0
  0
VERTEX
  5
CBE0
  8
HOLES
 10
327.0604047878568963
 20
-217.4891172905234953
 30
0.0
  0
SEQEND
  5
CBE1
  8
HOLES
  0
POLYLINE
  5
C823
  8
HOLES
 66
     1
 10
0.0
 20
0.0
 30
0.0
 70
     1
  0
VERTEX
  5
CBE2
  8
HOLES
 10
326.4229350247767911
 20
-218.1029750621115113
 30
0.0
  0
VERTEX
  5
CBE3
  8
HOLES
 10
325.5792762870893853
 20
-219.1084083937236073
 30
0.0
  0
VERTEX
  5
CBE4
  8
HOLES
 10
322.4672207368741965
 20
-216.4970837293396073
 30
0.0
  0
VERTEX
  5
CBE5
  8
HOLES
 10
323.3108794745617161
 20
-215.4916503977275113
 30
0.0
  0
SEQEND
  5
CBE6
  8
HOLES
  0
POLYLINE
  5
C824
  8
BLUE
 66
     1
 10
0.0
 20
0.0
 30
0.0
 70
     1
  0
VERTEX
  5
CBE7
  8
BLUE
 10
299.7269398763256163
 20
-228.0868740752754888
 30
0.0
  0
VERTEX
  5
CBE8
  8
BLUE
 10
300.4269398763256049
 20
-228.0868740752754888
 30
0.0
  0
VERTEX
  5
CBE9
  8
BLUE
 10
300.4269398763256049
 20
-230.2084939582786944
 30
0.0
 42
0.5800403653362781
  0
VERTEX
  5
CBEA
  8
BLUE
 10
300.8036810297363104
 20
-230.4239856751314903
 30
0.0
  0
VERTEX
  5
CBEB
  8
BLUE
 10
303.4867562634365186
 20
-228.8459387099229048
 30
0.0
 42
-0.1337031949888299
  0
VERTEX
  5
CBEC
  8
BLUE
 10
303.6134974168472809
 20
-228.811430426775587
 30
0.0
  0
VERTEX
  5
CBED
  8
BLUE
 10
305.0419098479936793
 20
-228.811430426775587
 30
0.0
 42
0.2216946625882135
  0
VERTEX
  5
CBEE
  8
BLUE
 10
305.2334209587399982
 20
-228.7221273292371109
 30
0.0
  0
VERTEX
  5
CBEF
  8
BLUE
 10
305.2344065589276738
 20
-228.7209527366773898
 30
0.0
  0
VERTEX
  5
CBF0
  8
BLUE
 10
314.4269398763256049
 20
-236.4344040528756068
 30
0.0
  0
VERTEX
  5
CBF1
  8
BLUE
 10
323.6194731937591769
 20
-228.7209527366472912
 30
0.0
  0
VERTEX
  5
CBF2
  8
BLUE
 10
323.620458793989485
 20
-228.7221273293293962
 30
0.0
 42
0.2216946624577938
  0
VERTEX
  5
CBF3
  8
BLUE
 10
323.8119699046583264
 20
-228.811430426775587
 30
0.0
  0
VERTEX
  5
CBF4
  8
BLUE
 10
325.240382335901927
 20
-228.811430426775587
 30
0.0
 42
-0.1337031949787461
  0
VERTEX
  5
CBF5
  8
BLUE
 10
325.367123489315702
 20
-228.8459387099246953
 30
0.0
  0
VERTEX
  5
CBF6
  8
BLUE
 10
328.0501987229117731
 20
-230.4239856751225943
 30
0.0
 42
0.5800403653420391
  0
VERTEX
  5
CBF7
  8
BLUE
 10
328.4269398763256049
 20
-230.2084939582717027
 30
0.0
  0
VERTEX
  5
CBF8
  8
BLUE
 10
328.4269398763256049
 20
-228.0868740752758015
 30
0.0
  0
VERTEX
  5
CBF9
  8
BLUE
 10
329.1269398763254799
 20
-228.0868740752754888
 30
0.0
  0
VERTEX
  5
CBFA
  8
BLUE
 10
329.1269398763254799
 20
-224.0868740752754888
 30
0.0
  0
VERTEX
  5
CBFB
  8
BLUE
 10
328.5643351458513166
 20
-224.0868740752754888
 30
0.0
 42
-0.2566853179576632
  0
VERTEX
  5
CBFC
  8
BLUE
 10
328.3532888847350932
 20
-223.9708870435617882
 30
0.0
  0
VERTEX
  5
CBFD
  8
BLUE
 10
326.282010942878685
 20
-220.7089977581333073
 30
0.0
 42
-0.3269241533368386
  0
VERTEX
  5
CBFE
  8
BLUE
 10
326.3015460932168139
 20
-220.4142878874237113
 30
0.0
  0
VERTEX
  5
CBFF
  8
BLUE
 10
328.2974738803420109
 20
-218.0356337766048966
 30
0.0
 42
0.3527125556234501
  0
VERTEX
  5
CC00
  8
BLUE
 10
328.3037325084923737
 20
-217.7220083602801139
 30
0.0
  0
VERTEX
  5
CC01
  8
BLUE
 10
325.7811877758010723
 20
-214.459810876674311
 30
0.0
 42
0.2321850926509752
  0
VERTEX
  5
CC02
  8
BLUE
 10
325.5834180368722173
 20
-214.362739390575598
 30
0.0
  0
VERTEX
  5
CC03
  8
BLUE
 10
303.2704617157788221
 20
-214.362739390575598
 30
0.0
 42
0.2321850926501514
  0
VERTEX
  5
CC04
  8
BLUE
 10
303.0726919768500807
 20
-214.459810876674311
 30
0.0
  0
VERTEX
  5
CC05
  8
BLUE
 10
300.5501472441587225
 20
-217.7220083602801139
 30
0.0
 42
0.3527125556232695
  0
VERTEX
  5
CC06
  8
BLUE
 10
300.5564058723090852
 20
-218.0356337766048966
 30
0.0
  0
VERTEX
  5
CC07
  8
BLUE
 10
302.5523336594342823
 20
-220.4142878874237113
 30
0.0
 42
-0.3269241533389449
  0
VERTEX
  5
CC08
  8
BLUE
 10
302.5718688097724112
 20
-220.7089977581333073
 30
0.0
  0
VERTEX
  5
CC09
  8
BLUE
 10
300.5005908679160029
 20
-223.9708870435617882
 30
0.0
 42
-0.2566853179531677
  0
VERTEX
  5
CC0A
  8
BLUE
 10
300.2895446067998932
 20
-224.0868740752754888
 30
0.0
  0
VERTEX
  5
CC0B
  8
BLUE
 10
299.7269398763256163
 20
-224.0868740752754888
 30
0.0
  0
SEQEND
  5
CC0C
  8
BLUE
  0
TEXT
  5
C825
  8
CNC_TEXT
 10
311.732046745975822
 20
-216.0331984845165891
 30
0.0
 40
1.2408609952812151
  1
S01B
  0
TEXT
  5
C826
  8
CNC_TEXT0
 10
941.1605732612279098
 20
-105.8625461536517065
 30
0.0
 40
23.0814917277011808
  1
T01C
  7
TYP_
  0
CIRCLE
  5
C827
  8
HOLES
 10
571.2045403139653672
 20
-232.7299005645720911
 30
0.0
 40
0.10125
  0
TEXT
  5
C828
  8
CNC_TEXT
 10
575.2493614594095561
 20
-233.6732555460725962
 30
0.0
 40
1.2408609952812151
  1
T01A
  0
POLYLINE
  5
C829
  8
HOLES
 66
     1
 10
0.0
 20
0.0
 30
0.0
 70
     1
  0
VERTEX
  5
CC0D
  8
HOLES
 10
777.526256822605319
 20
-233.5796126891412996
 30
0.0
  0
VERTEX
  5
CC0E
  8
HOLES
 10
783.4807666113597406
 20
-227.7620001443092121
 30
0.0
 42
-0.1958919799421903
  0
VERTEX
  5
CC0F
  8
HOLES
 10
783.5899598350331416
 20
-227.7175128500938968
 30
0.0
  0
VERTEX
  5
CC10
  8
HOLES
 10
794.5455947760356139
 20
-227.7175128500938115
 30
0.0
 42
-0.0204652981482272
  0
VERTEX
  5
CC11
  8
HOLES
 10
794.5583695272016485
 20
-227.7180359473678948
 30
0.0
  0
VERTEX
  5
CC12
  8
HOLES
 10
795.385164602777877
 20
-227.7858604603846118
 30
0.0
  0
VERTEX
  5
CC13
  8
HOLES
 10
795.385164602777877
 20
-238.5364915472937923
 30
0.0
  0
VERTEX
  5
CC14
  8
HOLES
 10
787.028315982687559
 20
-238.5364915472937923
 30
0.0
 42
-0.0965474659652968
  0
VERTEX
  5
CC15
  8
HOLES
 10
786.9696353620222453
 20
-238.5250540027606121
 30
0.0
  0
VERTEX
  5
CC16
  8
HOLES
 10
777.5767694256142022
 20
-234.7188951942594883
 30
0.0
 42
-0.305450733689451
  0
VERTEX
  5
CC17
  8
HOLES
 10
777.4792000462780379
 20
-234.5740827387922138
 30
0.0
  0
VERTEX
  5
CC18
  8
HOLES
 10
777.4792000462780379
 20
-233.6913753949243073
 30
0.0
 42
-0.2019362499761473
  0
SEQEND
  5
CC19
  8
HOLES
  0
POLYLINE
  5
C82A
  8
BLUE
 66
     1
 10
0.0
 20
0.0
 30
0.0
 70
     1
  0
VERTEX
  5
CC1A
  8
BLUE
 10
797.228914602777877
 20
-225.0813948840938963
 30
0.0
  0
VERTEX
  5
CC1B
  8
BLUE
 10
797.228914602777877
 20
-241.481394884093902
 30
0.0
  0
VERTEX
  5
CC1C
  8
BLUE
 10
777.2289146027777633
 20
-241.481394884093902
 30
0.0
  0
VERTEX
  5
CC1D
  8
BLUE
 10
777.2289146027777633
 20
-240.7813948840939133
 30
0.0
  0
VERTEX
  5
CC1E
  8
BLUE
 10
773.2289146027777633
 20
-240.7813948840939133
 30
0.0
  0
VERTEX
  5
CC1F
  8
BLUE
 10
773.2289146027777633
 20
-225.7813948840939133
 30
0.0
  0
VERTEX
  5
CC20
  8
BLUE
 10
777.2289146027781044
 20
-225.7813948840939133
 30
0.0
  0
VERTEX
  5
CC21
  8
BLUE
 10
777.2289146027777633
 20
-225.0813948840938963
 30
0.0
  0
SEQEND
  5
CC22
  8
BLUE
  0
CIRCLE
  5
C82B
  8
HOLES
 10
775.2289146027777633
 20
-239.7097413407938973
 30
0.0
 40
0.10125
  0
TEXT
  5
C82C
  8
CNC_TEXT
 10
780.6659918652586612
 20
-240.2866239601218865
 30
0.0
 40
1.2408609952812151
  1
T01B
  0
POLYLINE
  5
C82D
  8
HOLES
 66
     1
 10
0.0
 20
0.0
 30
0.0
 70
     1
  0
VERTEX
  5
CC23
  8
HOLES
 10
966.4670985546372322
 20
-234.6675652597544968
 30
0.0
  0
VERTEX
  5
CC24
  8
HOLES
 10
972.4216083433915401
 20
-240.4851778045866126
 30
0.0
 42
0.1958919799421903
  0
VERTEX
  5
CC25
  8
HOLES
 10
972.5308015670650548
 20
-240.5296650988017859
 30
0.0
  0
VERTEX
  5
CC26
  8
HOLES
 10
983.4864365080674133
 20
-240.5296650988020133
 30
0.0
 42
0.0204652981482272
  0
VERTEX
  5
CC27
  8
HOLES
 10
983.4992112592334479
 20
-240.5291420015279016
 30
0.0
  0
VERTEX
  5
CC28
  8
HOLES
 10
984.3260063348096764
 20
-240.461317488511213
 30
0.0
  0
VERTEX
  5
CC29
  8
HOLES
 10
984.3260063348096764
 20
-229.7106864016018903
 30
0.0
  0
VERTEX
  5
CC2A
  8
HOLES
 10
975.9691577147194721
 20
-229.7106864016018903
 30
0.0
 42
0.0965474659652968
  0
VERTEX
  5
CC2B
  8
HOLES
 10
975.9104770940541584
 20
-229.7221239461352127
 30
0.0
  0
VERTEX
  5
CC2C
  8
HOLES
 10
966.5176111576460016
 20
-233.528282754636308
 30
0.0
 42
0.305450733689451
  0
VERTEX
  5
CC2D
  8
HOLES
 10
966.420041778309951
 20
-233.673095210103611
 30
0.0
  0
VERTEX
  5
CC2E
  8
HOLES
 10
966.420041778309951
 20
-234.555802553971489
 30
0.0
 42
0.2019362499761473
  0
SEQEND
  5
CC2F
  8
HOLES
  0
POLYLINE
  5
C82E
  8
BLUE
 66
     1
 10
0.0
 20
0.0
 30
0.0
 70
     1
  0
VERTEX
  5
CC30
  8
BLUE
 10
986.1697563348097901
 20
-243.1657830648019001
 30
0.0
  0
VERTEX
  5
CC31
  8
BLUE
 10
986.1697563348097901
 20
-226.7657830648018944
 30
0.0
  0
VERTEX
  5
CC32
  8
BLUE
 10
966.1697563348096764
 20
-226.7657830648018944
 30
0.0
  0
VERTEX
  5
CC33
  8
BLUE
 10
966.1697563348096764
 20
-227.4657830648019967
 30
0.0
  0
VERTEX
  5
CC34
  8
BLUE
 10
962.1697563348097901
 20
-227.4657830648019967
 30
0.0
  0
VERTEX
  5
CC35
  8
BLUE
 10
962.1697563348097901
 20
-242.4657830648019115
 30
0.0
  0
VERTEX
  5
CC36
  8
BLUE
 10
966.1697563348100175
 20
-242.4657830648019115
 30
0.0
  0
VERTEX
  5
CC37
  8
BLUE
 10
966.1697563348096764
 20
-243.1657830648019001
 30
0.0
  0
SEQEND
  5
CC38
  8
BLUE
  0
TEXT
  5
C82F
  8
CNC_TEXT
 10
969.5153264422732491
 20
-228.7950548490904907
 30
0.0
 40
1.2408609952812151
  1
T01C
  0
CIRCLE
  5
C830
  8
HOLES
 10
117.1253581731458979
 20
-226.0868740752754888
 30
0.0
 40
0.03125
  0
CIRCLE
  5
C831
  8
HOLES
 10
88.4253581731459235
 20
-226.0868740752754888
 30
0.0
 40
0.03125
  0
CIRCLE
  5
C832
  8
HOLES
 10
328.776939876325514
 20
-226.0868740752754888
 30
0.0
 40
0.03125
  0
CIRCLE
  5
C833
  8
HOLES
 10
300.0769398763255253
 20
-226.0868740752754888
 30
0.0
 40
0.03125
  0
CIRCLE
  5
C834
  8
HOLES
 10
592.4545403139652535
 20
-233.7515541078714136
 30
0.0
 40
0.0312499999997726
  0
CIRCLE
  5
C835
  8
HOLES
 10
592.3295403139652535
 20
-230.7515541078720105
 30
0.0
 40
0.0637303149607078
  0
CIRCLE
  5
C836
  8
HOLES
 10
592.4545403139652535
 20
-218.8515541078712943
 30
0.0
 40
0.0312499999997726
  0
CIRCLE
  5
C837
  8
HOLES
 10
590.6545403139655264
 20
-218.8515541078718059
 30
0.0
 40
0.0637303149604804
  0
CIRCLE
  5
C838
  8
HOLES
 10
588.2045403139657083
 20
-220.1439220738720053
 30
0.0
 40
0.0637303149605941
  0
CIRCLE
  5
C839
  8
HOLES
 10
585.6945446334652843
 20
-218.8015541078717945
 30
0.0
 40
0.0637303149603668
  0
CIRCLE
  5
C83A
  8
HOLES
 10
577.6945446334658527
 20
-218.8015541078723061
 30
0.0
 40
0.0735728346460292
  0
CIRCLE
  5
C83B
  8
HOLES
 10
571.2045403139657083
 20
-219.8732076511720948
 30
0.0
 40
0.1162500000000364
  0
CIRCLE
  5
C83C
  8
HOLES
 10
775.2289146027781044
 20
-226.853048427393901
 30
0.0
 40
0.1162500000000364
  0
CIRCLE
  5
C83D
  8
HOLES
 10
781.718918922277453
 20
-225.781394884093487
 30
0.0
 40
0.073572834645347
  0
CIRCLE
  5
C83E
  8
HOLES
 10
789.7189189222781351
 20
-225.781394884093686
 30
0.0
 40
0.0637303149603668
  0
CIRCLE
  5
C83F
  8
HOLES
 10
792.2289146027776496
 20
-227.1237628500938968
 30
0.0
 40
0.0637303149605941
  0
CIRCLE
  5
C840
  8
HOLES
 10
794.6789146027776951
 20
-225.8313948840936973
 30
0.0
 40
0.0637303149604804
  0
CIRCLE
  5
C841
  8
HOLES
 10
796.4789146027776496
 20
-225.8313948840931005
 30
0.0
 40
0.0312499999997726
  0
CIRCLE
  5
C842
  8
HOLES
 10
796.3539146027776496
 20
-237.731394884093703
 30
0.0
 40
0.0637303149604804
  0
CIRCLE
  5
C843
  8
HOLES
 10
796.4789146027776496
 20
-240.731394884093703
 30
0.0
 40
0.0312500000002274
  0
CIRCLE
  5
C844
  8
HOLES
 10
964.1697563348096764
 20
-228.5374366081018991
 30
0.0
 40
0.10125000000005
  0
CIRCLE
  5
C845
  8
HOLES
 10
985.4197563348095628
 20
-227.515783064802207
 30
0.0
 40
0.0312499999998863
  0
CIRCLE
  5
C846
  8
HOLES
 10
985.2947563348094491
 20
-230.5157830648018944
 30
0.0
 40
0.0637303149605941
  0
CIRCLE
  5
C847
  8
HOLES
 10
985.4197563348095628
 20
-242.415783064802298
 30
0.0
 40
0.0312499999998863
  0
CIRCLE
  5
C848
  8
HOLES
 10
983.6197563348099493
 20
-242.415783064802099
 30
0.0
 40
0.0637303149608215
  0
CIRCLE
  5
C849
  8
HOLES
 10
981.1697563348094491
 20
-241.1234150988017007
 30
0.0
 40
0.0637303149608215
  0
CIRCLE
  5
C84A
  8
HOLES
 10
978.6597606543094798
 20
-242.4657830648017125
 30
0.0
 40
0.0637303149608215
  0
CIRCLE
  5
C84B
  8
HOLES
 10
970.6597606543100483
 20
-242.4657830648023094
 30
0.0
 40
0.073572834645347
  0
CIRCLE
  5
C84C
  8
HOLES
 10
964.1697563348101312
 20
-241.3941295215018954
 30
0.0
 40
0.1162500000000364
  0
ENDSEC
  0
EOF
